<svg width="56" height="56" viewBox="0 0 56 56" fill="none" xmlns="http://www.w3.org/2000/svg">
<path fill-rule="evenodd" clip-rule="evenodd" d="M16.2502 3.13814C21.8618 0.486245 28.2055 -0.189353 34.2498 1.2212C40.294 2.63175 45.6834 6.04549 49.5415 10.9073C53.3997 15.7692 55.4996 21.7932 55.5 27.9999L55.5 28V30.5C55.5 33.1522 54.4465 35.6957 52.5711 37.5711C50.6957 39.4465 48.1522 40.5 45.5 40.5C42.8479 40.5 40.3043 39.4465 38.429 37.5711C36.5536 35.6957 35.5 33.1522 35.5 30.5V18C35.5 16.6193 36.6193 15.5 38 15.5C39.3807 15.5 40.5 16.6193 40.5 18V30.5C40.5 31.8261 41.0268 33.0979 41.9645 34.0356C42.9022 34.9733 44.174 35.5 45.5 35.5C46.8261 35.5 48.0979 34.9733 49.0356 34.0356C49.9732 33.0979 50.5 31.8261 50.5 30.5V28.0002C50.5 28.0001 50.5 28.0001 50.5 28C50.4997 22.9219 48.7815 17.9932 45.6249 14.0154C42.4682 10.0375 38.0588 7.24445 33.1135 6.09036C28.1682 4.93628 22.9779 5.48904 18.3866 7.65877C13.7952 9.8285 10.0729 13.4876 7.82486 18.0411C5.57679 22.5946 4.9352 27.7746 6.0044 32.739C7.07361 37.7033 9.79072 42.16 13.7139 45.3843C17.6372 48.6086 22.5357 50.411 27.6132 50.4983C32.6906 50.5856 37.6483 48.9527 41.68 45.8652C42.7762 45.0257 44.3454 45.2338 45.1849 46.33C46.0243 47.4262 45.8162 48.9954 44.72 49.8349C39.7923 53.6085 33.733 55.6043 27.5272 55.4976C21.3215 55.3908 15.3343 53.188 10.5393 49.2471C5.74421 45.3063 2.42329 39.8592 1.11649 33.7917C-0.190317 27.7242 0.59385 21.393 3.34148 15.8276C6.08912 10.2623 10.6386 5.79003 16.2502 3.13814Z" fill="white"/>
</svg>
