<svg width="58" height="44" viewBox="0 0 58 44" fill="none" xmlns="http://www.w3.org/2000/svg">
<path d="M43.3892 17.25H40.3967C39.5081 13.8086 37.6721 10.6855 35.0972 8.23544C32.5223 5.78541 29.3119 4.10673 25.8306 3.39016C22.3494 2.67358 18.7369 2.94785 15.4037 4.18178C12.0706 5.41572 9.15032 7.55984 6.97485 10.3705C4.79938 13.1812 3.4559 16.5458 3.09708 20.0818C2.73826 23.6179 3.37848 27.1838 4.945 30.3742C6.51151 33.5646 8.9415 36.2516 11.9589 38.13C14.9762 40.0083 18.4599 41.0026 22.0142 41H43.3892C46.5386 41 49.5591 39.7489 51.7861 37.5219C54.0131 35.2949 55.2642 32.2744 55.2642 29.125C55.2642 25.9756 54.0131 22.9551 51.7861 20.7281C49.5591 18.5011 46.5386 17.25 43.3892 17.25Z" stroke="white" stroke-width="5" stroke-linecap="round" stroke-linejoin="round"/>
</svg>
