<svg width="54" height="54" viewBox="0 0 54 54" fill="none" xmlns="http://www.w3.org/2000/svg">
<path fill-rule="evenodd" clip-rule="evenodd" d="M37.3944 5.56991C36.187 5.43347 34.9593 5.47301 33.7501 5.69332C31.2503 6.14879 28.9487 7.35528 27.152 9.15202C25.3552 10.9488 24.1487 13.2504 23.6932 15.7502C23.2378 18.25 23.555 20.8293 24.6025 23.1443C25.0315 24.0923 24.8284 25.2069 24.0926 25.9427L6.81765 43.2177C6.29193 43.7434 5.99658 44.4565 5.99658 45.1999C5.99658 45.9434 6.29193 46.6565 6.81765 47.1822C7.34337 47.7079 8.0564 48.0032 8.79988 48.0032C9.54336 48.0032 10.2564 47.7079 10.7821 47.1822L28.0571 29.9072C28.7929 29.1714 29.9075 28.9683 30.8556 29.3973C33.1705 30.4449 35.7498 30.7621 38.2496 30.3066C40.7494 29.8511 43.0511 28.6446 44.8478 26.8479C46.6446 25.0511 47.851 22.7495 48.3065 20.2497C48.5268 19.0406 48.5664 17.8128 48.4299 16.6054L42.0177 23.0177L41.9999 23.0353C41.0652 23.9514 39.8086 24.4646 38.4999 24.4646C37.1911 24.4646 35.9345 23.9514 34.9999 23.0353L34.9821 23.0177L30.9821 19.0177L30.9645 19C30.0484 18.0653 29.5352 16.8087 29.5352 15.5C29.5352 14.1912 30.0484 12.9346 30.9645 12L30.9821 11.9822L37.3944 5.56991ZM32.8539 0.774299C36.3536 0.136638 39.9646 0.580697 43.2056 2.0473C43.9533 2.38565 44.4873 3.06942 44.6344 3.87682C44.7815 4.68422 44.523 5.5124 43.9426 6.09272L34.5354 15.5L38.4999 19.4644L47.9071 10.0572C48.4874 9.47687 49.3156 9.21833 50.123 9.36544C50.9304 9.51255 51.6142 10.0466 51.9525 10.7943C53.4191 14.0352 53.8632 17.6462 53.2255 21.1459C52.5879 24.6457 50.8988 27.868 48.3833 30.3834C45.8679 32.8988 42.6456 34.5879 39.1459 35.2256C36.2272 35.7574 33.2313 35.5368 30.437 34.5983L14.3176 50.7177C12.8542 52.1811 10.8694 53.0032 8.79988 53.0032C6.73032 53.0032 4.74552 52.1811 3.28212 50.7177C1.81871 49.2543 0.996582 47.2695 0.996582 45.1999C0.996582 43.1304 1.81871 41.1456 3.28212 39.6822L19.4015 23.5628C18.463 20.7686 18.2425 17.7726 18.7742 14.854C19.4119 11.3542 21.101 8.13192 23.6164 5.61649C26.1319 3.10106 29.3541 1.41196 32.8539 0.774299Z" fill="white"/>
</svg>
